<?xml version="1.0" encoding="UTF-8"?>
<svg width="752pt" height="752pt" version="1.1" viewBox="0 0 752 752" xmlns="http://www.w3.org/2000/svg">
 <g>
  <path d="m557.38 508.61h-170.49c-2.8398 0-4.7344 1.8945-4.7344 4.7344s1.8945 4.7344 4.7344 4.7344h170.49c2.8398 0 4.7344-1.8945 4.7344-4.7344s-1.8945-4.7344-4.7344-4.7344z"/>
  <path d="m450.83 552.65h-73.406c-2.8398 0-4.7344 1.8945-4.7344 4.7344 0 2.8398 1.8945 4.7344 4.7344 4.7344h72.93c2.8398 0 4.7344-1.8945 4.7344-4.7344 0.003906-2.8398-1.8906-4.7344-4.2578-4.7344z"/>
  <path d="m540.81 530.86h-73.406c-2.8398 0-4.7344 1.8945-4.7344 4.7344s1.8945 4.7344 4.7344 4.7344h72.93c2.8398 0 4.7344-1.8945 4.7344-4.7344 0.003906-2.8398-1.8906-4.7344-4.2578-4.7344z"/>
  <path d="m497.24 552.65h-18.941c-2.8398 0-4.7344 1.8945-4.7344 4.7344 0 2.8398 1.8945 4.7344 4.7344 4.7344h18.941c2.8398 0 4.7344-1.8945 4.7344-4.7344 0-2.8398-2.3672-4.7344-4.7344-4.7344z"/>
  <path d="m353.74 516.18-8.0508-23.68c-0.47266-1.4219-1.4219-2.3672-2.3672-2.8398-0.94531-0.47266-2.3672-0.47266-3.7891-0.47266l-67.25 22.73-70.562-20.363c-2.3672-0.94531-5.2109 0.94531-5.6836 3.3164l-7.1055 24.152c-0.47266 1.4219 0 2.3672 0.47266 3.7891s1.4219 1.8945 2.8398 2.3672l22.73 6.6289-25.102 8.5234c-1.4219 0.47266-2.3672 1.4219-2.8398 2.3672-0.47266 0.94531-0.47266 2.3672-0.47266 3.7891l8.0508 23.68c0.47266 1.8945 2.3672 3.3164 4.2617 3.3164 0.47266 0 0.94531 0 1.4219-0.47266l69.617-23.68 69.617 20.363h1.4219c1.8945 0 3.7891-1.4219 4.7344-3.3164l7.1055-24.152c0.94531-2.3672-0.94531-5.2109-3.3164-5.6836l-22.258-6.6289 22.73-7.5781c3.3203-1.418 4.7422-3.7852 3.793-6.1562zm-150.12-14.207 52.566 15.156-26.047 8.9961-31.258-8.9961zm134.97 56.832-52.094-15.156 26.047-8.9961 30.309 8.9961zm-136.39 3.3125-5.2109-14.68 141.13-47.832 5.2109 14.68z"/>
  <path d="m562.12 473.56c0-0.47266 0-0.94531-0.47266-1.4219l-143.97-261.41c0-0.47266-0.47266-0.47266-0.47266-0.94531-0.94531-0.94531-1.8945-1.4219-3.3164-1.4219s-2.8398 0.47266-3.3164 1.4219c-0.47266 0.47266-0.47266 0.47266-0.47266 0.94531l-113.66 204.59c-8.9961-13.734-18.941-25.574-20.836-27.941-1.8945-2.3672-5.6836-2.3672-7.1055 0-4.2617 4.7344-39.781 48.777-39.781 71.512 0 24.152 19.418 43.57 43.57 43.57h0.47266 0.47266c16.102-0.47266 30.309-9.4727 37.414-23.207h246.73 1.4219 0.47266c0.47266 0 0.47266-0.47266 0.94531-0.47266 0 0 0.47266 0 0.47266-0.47266 0.47266 0 0.47266-0.47266 0.47266-0.94531l0.47266-0.47266c0-0.47266 0.47266-0.94531 0.47266-1.4219 0.003907-0.47656 0.003907-0.94922 0.003907-1.8984v0zm-143.97-242 129.76 234.89c-118.39-39.305-128.81-200.32-129.76-234.89zm111.77 238.21h-111.77v-161.96c12.789 58.25 42.148 130.71 111.77 161.96zm-121.23-238.21c-0.94922 30.785-9 161.96-94.242 218.32-2.3672-7.5781-6.6289-16.574-11.84-25.102zm-135.45 261.42h-0.94531c-8.5234 0-15.156-7.1055-15.156-15.629 0-5.6836 8.0508-18.469 15.629-27.941 7.1055 9.4727 15.629 22.258 15.629 27.941-0.47656 8.5234-7.1055 15.156-15.156 15.629zm24.152-10.895c0.47266-1.4219 0.47266-2.8398 0.47266-4.2617 0-12.312-17.523-34.098-21.312-38.359-0.94531-0.94531-2.3672-1.8945-3.7891-1.8945-1.4219 0-2.8398 0.47266-3.7891 1.8945-3.7891 4.2617-21.312 26.52-21.312 38.359 0 1.8945 0.47266 4.2617 0.94531 6.1562-6.6289-6.1562-10.418-15.156-10.418-24.625 0-14.68 22.258-45.465 34.098-61.094 12.312 15.156 34.098 46.41 34.098 61.094 0.007813 8.5234-3.7812 16.574-8.9922 22.73zm18.469-21.785c43.57-26.992 74.824-75.773 90.926-142.07 0.94531-2.8398 1.4219-5.6836 1.8945-8.5234v160.54h-94.238c0.47266-3.3125 0.94531-6.6289 1.418-9.9453z"/>
  <path d="m238.19 197.93c-1.4219-1.4219-3.7891-1.8945-5.6836-0.94531-17.051 8.5234-27.469 25.574-27.469 44.516 0 27.469 22.258 49.727 49.727 49.727 18.941 0 35.992-10.418 44.516-27.469 0.94531-1.8945 0.47266-3.7891-0.94531-5.6836-1.4219-1.4219-3.7891-1.8945-5.6836-0.94531-5.6836 2.8398-11.84 4.2617-17.996 4.2617-22.258 0-40.254-17.996-40.254-40.254 0-6.1562 1.4219-12.312 4.2617-17.996 1.4219-1.4219 0.94922-3.7891-0.47266-5.2109zm36.941 72.934c2.8398 0 5.2109 0 7.5781-0.47266-7.5781 7.1055-17.523 11.367-27.941 11.367-22.258 0-40.254-17.996-40.254-40.254 0-10.891 4.2617-20.836 11.367-27.941-0.47266 2.3672-0.47266 5.2109-0.47266 7.5781-0.003906 27.465 22.254 49.723 49.723 49.723z"/>
 </g>
</svg>
