<?xml version="1.0" encoding="UTF-8"?>
<svg width="752pt" height="752pt" version="1.1" viewBox="0 0 752 752" xmlns="http://www.w3.org/2000/svg">
 <g>
  <path d="m376 519.02c10.891 0 19.891-8.9961 19.891-19.891 0-10.891-8.9961-19.891-19.891-19.891-10.891 0-19.891 8.9961-19.891 19.891 0 10.891 9 19.891 19.891 19.891zm0-30.785c5.6836 0 10.418 4.7344 10.418 10.418s-4.7344 10.418-10.418 10.418-10.418-4.7344-10.418-10.418c0-5.6797 4.7383-10.418 10.418-10.418z"/>
  <path d="m292.18 461.25h10.418c-2.3672 3.3164-4.2617 7.1055-4.7344 11.367l-11.367 64.879v0.47266 0.47266 21.785c0 2.8398 1.8945 4.7344 4.7344 4.7344h169.07c2.8398 0 4.7344-1.8945 4.7344-4.7344v-21.785-0.47266-0.47266l-11.367-64.879c-0.47266-4.2617-2.3672-8.5234-4.7344-11.84h10.418c6.6289 0 13.262-2.8398 17.996-7.5781 4.7344-4.7344 7.1055-11.367 6.6289-18.469l-15.156-191.33c-0.47266-10.418-8.9961-18.469-19.418-18.469h-11.84c-4.2617-9.9453-22.258-16.102-40.254-18.469v-0.47266c0-11.84-9.4727-21.312-21.312-21.312-11.84 0-21.312 9.4727-21.312 21.312v0.47266c-17.996 2.3672-35.992 8.0508-40.254 18.469h-11.84c-10.418 0-18.941 8.0508-19.418 18.469l-15.156 191.33c-0.47266 6.6289 1.8945 13.262 6.6289 17.996 4.75 4.7344 10.906 8.5234 17.535 8.5234zm163.86 94.242h-159.59v-12.312h159.6zm-11.363-81.457 10.418 59.672h-157.7l10.418-59.672c0.94531-7.1055 6.6289-12.785 13.734-12.785h109.87c6.6289 0 12.312 5.2109 13.262 12.785zm-68.672-219.74c14.68 0 29.363-1.8945 41.203-5.6836 1.8945 2.3672 3.7891 4.7344 5.2109 7.1055-9.9453 5.2109-27.469 8.5234-46.41 8.5234-17.996 0-34.57-2.8398-44.988-7.5781 1.8945-2.3672 3.7891-5.2109 5.6836-7.5781 11.359 3.7891 25.566 5.2109 39.301 5.2109zm-50.199 10.418c11.367 5.6836 29.836 9.4727 50.199 9.4727 21.312 0 40.254-3.7891 51.621-9.9453 11.84 18.941 20.836 43.098 20.836 78.613 0 40.727-10.418 79.09-27.941 104.66-3.3164-9.9453-12.312-18.469-24.152-22.73 10.891-6.6289 17.996-18.469 17.996-32.203 0-19.418-30.781-57.777-34.57-62.039-1.8945-2.3672-5.6836-2.3672-7.1055 0-3.3164 4.2617-34.57 42.148-34.57 62.039 0 13.734 7.1055 25.574 17.996 32.203-11.84 4.2617-20.836 12.785-24.152 22.73-17.523-25.102-27.941-63.461-27.941-104.66-0.47266-33.152 8.0508-56.355 21.785-78.141zm37.887 143.49c0-4.2617 6.6289-14.68 12.785-22.73 6.1562 8.0508 12.785 18.469 12.785 22.73 0 7.1055-5.6836 12.785-12.785 12.785-7.1016 0.003907-12.785-5.6797-12.785-12.785zm16.102-33.621c-1.8945-2.3672-5.6836-2.3672-7.1055 0-2.8398 3.7891-18.469 22.73-18.469 33.625 0 0.94531 0 1.8945 0.47266 2.3672-4.2617-5.2109-6.6289-11.367-6.6289-18.469 0-12.312 18.469-37.887 28.887-51.148 10.418 13.262 28.887 39.309 28.887 51.148 0 7.1055-2.3672 13.734-6.6289 18.469 0-0.94531 0.47266-1.4219 0.47266-2.3672-1.418-10.895-17.043-29.836-19.887-33.625zm-39.305 76.246c3.3164-11.84 17.996-20.363 35.992-20.363 17.996 0 32.676 8.9961 35.992 20.363zm119.81-206.48 15.156 191.33c0 4.2617-1.4219 8.0508-4.2617 11.367-2.8398 2.8398-6.6289 4.7344-10.891 4.7344h-30.781c17.996-26.992 28.887-66.773 28.887-108.92 0-46.883-14.68-74.824-31.73-97.559 5.6836-2.8398 9.9453-6.1562 11.367-10.418h12.312c5.207-0.003906 9.4688 4.2578 9.9414 9.4688zm-84.297-50.203c6.6289 0 11.84 5.2109 11.84 11.84s-5.2109 11.84-11.84 11.84-11.84-5.2109-11.84-11.84 5.2109-11.84 11.84-11.84zm-18.941 22.262c3.7891 7.1055 10.891 11.84 18.941 11.84 8.5234 0 15.629-4.7344 18.941-11.84 22.258 2.8398 34.57 9.4727 34.57 13.734 0 5.2109-18.941 15.156-53.516 15.156-34.57 0-53.516-9.9453-53.516-15.156 0.007812-4.2656 12.32-11.367 34.578-13.734zm-64.883 27.941c0.47266-5.2109 4.7344-9.4727 9.9453-9.4727h12.316c1.8945 4.7344 6.6289 8.0508 13.262 11.367-19.891 26.992-33.152 53.988-33.152 96.609 0 42.148 10.891 81.93 28.887 108.92h-30.781c-4.2617 0-8.0508-1.8945-10.891-4.7344-2.8398-2.8398-4.2617-7.1055-4.2617-10.891z"/>
 </g>
</svg>
